<svg fill="none" height="158" viewBox="0 0 151 158" width="151" xmlns="http://www.w3.org/2000/svg"><path d="m26.0594 27.696c4.8696 3.9844 6.7141 3.7029 15.9072 3.0858l86.6684-5.2187c1.844 0 .309-1.8514-.31-2.1625l-14.397-10.4422c-2.74-2.1625-6.429-4.60151-13.478-4.01398l-83.8985 6.17158c-3.0742.2814-3.689 1.8267-2.4593 3.061zm5.1991 20.292v91.517c0 4.912 2.4348 6.764 7.9438 6.453l95.2507-5.53c5.509-.311 6.149-3.678 6.149-7.687v-90.8998c0-4.014-1.54-6.1469-4.919-5.8358l-99.5254 5.8358c-3.6891.311-4.8942 2.1329-4.8942 6.1222zm94.0215 4.883c.615 2.7796 0 5.5297-2.769 5.8654l-4.585.9282v67.5514c-3.998 2.162-7.658 3.397-10.708 3.397-4.918 0-6.148-1.546-9.8125-6.147l-30.0239-47.3137v45.7727l9.503 2.163s0 5.53-7.6584 5.53l-21.1358 1.234c-.6148-1.234 0-4.32 2.1544-4.913l5.509-1.545v-60.5058l-7.6585-.6172c-.6148-2.7796.9247-6.764 5.1991-7.0701l22.6704-1.5453 31.2532 47.9304v-42.4057l-7.9679-.9282c-.6149-3.3672 1.8199-5.8358 4.8939-6.1221zm-115.7721-46.05452 87.2828-6.452964c10.7083-.928199 13.4773-.311045 20.2113 4.601504l27.874 19.66988c4.584 3.3672 6.124 4.2954 6.124 7.9737v107.8244c0 6.764-2.459 10.748-11.018 11.365l-101.3995 6.147c-6.4042.311-9.4784-.617-12.8625-4.912l-20.52091-26.745c-3.66445-4.913-5.19909-8.591-5.19909-12.882v-95.8362c0-5.5297 2.45936-10.13123 9.50298-10.74839z" fill="#e1e1e1"/></svg>